Normalized EMG Linear Envelopes
nRows=32
nColumns=17

endheader
time	        VM	        VL	        RF	       GRA	        TA	   ADDLONG	   SEMIMEM	      BFLH	        GM	        GL	       TFL	   GLUTMAX	   GLUTMED	      PIRI	    OBTINT	        QF	
2.0475	  0.095455	  0.155542	  0.657590	  0.363628	  0.537719	  0.198446	  0.048679	  0.064182	  0.042772	  0.041848	  0.368061	  0.044041	  0.132523	  0.113749	  0.683116	  0.063685	
2.048	  0.095364	  0.155375	  0.655860	  0.363484	  0.534552	  0.196096	  0.048603	  0.064432	  0.042579	  0.041490	  0.366756	  0.044316	  0.134236	  0.114768	  0.693001	  0.064177	
2.0485	  0.095260	  0.155194	  0.654080	  0.363353	  0.531396	  0.193771	  0.048530	  0.064679	  0.042396	  0.041148	  0.365438	  0.044593	  0.135965	  0.115821	  0.702986	  0.064682	
2.049	  0.095144	  0.154999	  0.652253	  0.363236	  0.528250	  0.191468	  0.048458	  0.064921	  0.042224	  0.040821	  0.364109	  0.044874	  0.137710	  0.116907	  0.713068	  0.065199	
2.0495	  0.095015	  0.154790	  0.650379	  0.363131	  0.525116	  0.189189	  0.048388	  0.065160	  0.042063	  0.040510	  0.362767	  0.045159	  0.139471	  0.118026	  0.723244	  0.065729	
2.05	  0.094873	  0.154565	  0.648457	  0.363039	  0.521996	  0.186934	  0.048319	  0.065395	  0.041913	  0.040213	  0.361411	  0.045447	  0.141248	  0.119177	  0.733513	  0.066272	
2.0505	  0.094719	  0.154326	  0.646489	  0.362958	  0.518888	  0.184703	  0.048251	  0.065625	  0.041774	  0.039932	  0.360042	  0.045738	  0.143040	  0.120360	  0.743871	  0.066826	
2.051	  0.094552	  0.154072	  0.644474	  0.362889	  0.515796	  0.182496	  0.048185	  0.065851	  0.041645	  0.039666	  0.358658	  0.046032	  0.144848	  0.121575	  0.754316	  0.067393	
2.0515	  0.094372	  0.153802	  0.642413	  0.362830	  0.512718	  0.180313	  0.048119	  0.066072	  0.041528	  0.039414	  0.357261	  0.046330	  0.146671	  0.122820	  0.764844	  0.067971	
2.052	  0.094181	  0.153517	  0.640306	  0.362781	  0.509656	  0.178154	  0.048054	  0.066289	  0.041422	  0.039177	  0.355848	  0.046631	  0.148510	  0.124096	  0.775452	  0.068560	
2.0525	  0.093977	  0.153217	  0.638153	  0.362741	  0.506611	  0.176020	  0.047990	  0.066501	  0.041327	  0.038955	  0.354420	  0.046936	  0.150364	  0.125402	  0.786137	  0.069161	
2.053	  0.093762	  0.152901	  0.635954	  0.362710	  0.503583	  0.173911	  0.047927	  0.066708	  0.041242	  0.038746	  0.352977	  0.047244	  0.152232	  0.126737	  0.796895	  0.069773	
2.0535	  0.093536	  0.152570	  0.633709	  0.362687	  0.500573	  0.171826	  0.047864	  0.066910	  0.041169	  0.038553	  0.351518	  0.047555	  0.154116	  0.128101	  0.807722	  0.070395	
2.054	  0.093299	  0.152223	  0.631419	  0.362671	  0.497582	  0.169766	  0.047801	  0.067107	  0.041107	  0.038373	  0.350044	  0.047869	  0.156013	  0.129494	  0.818614	  0.071027	
2.0545	  0.093052	  0.151862	  0.629085	  0.362661	  0.494611	  0.167731	  0.047738	  0.067300	  0.041056	  0.038207	  0.348554	  0.048186	  0.157925	  0.130913	  0.829567	  0.071670	
2.055	  0.092794	  0.151484	  0.626708	  0.362657	  0.491661	  0.165720	  0.047675	  0.067487	  0.041016	  0.038054	  0.347049	  0.048507	  0.159850	  0.132359	  0.840575	  0.072322	
2.0555	  0.092527	  0.151092	  0.624288	  0.362657	  0.488732	  0.163735	  0.047612	  0.067668	  0.040986	  0.037916	  0.345528	  0.048830	  0.161790	  0.133832	  0.851635	  0.072983	
2.056	  0.092250	  0.150684	  0.621826	  0.362660	  0.485825	  0.161774	  0.047548	  0.067845	  0.040968	  0.037790	  0.343992	  0.049157	  0.163743	  0.135330	  0.862740	  0.073654	
2.0565	  0.091964	  0.150261	  0.619323	  0.362665	  0.482941	  0.159839	  0.047484	  0.068016	  0.040961	  0.037678	  0.342442	  0.049487	  0.165709	  0.136853	  0.873887	  0.074333	
2.057	  0.091670	  0.149823	  0.616779	  0.362672	  0.480079	  0.157929	  0.047420	  0.068183	  0.040964	  0.037579	  0.340876	  0.049821	  0.167688	  0.138400	  0.885069	  0.075020	
2.0575	  0.091368	  0.149370	  0.614195	  0.362678	  0.477242	  0.156044	  0.047355	  0.068345	  0.040979	  0.037492	  0.339296	  0.050157	  0.169680	  0.139971	  0.896281	  0.075716	
2.058	  0.091057	  0.148902	  0.611571	  0.362682	  0.474427	  0.154186	  0.047289	  0.068501	  0.041004	  0.037418	  0.337701	  0.050496	  0.171685	  0.141566	  0.907517	  0.076419	
2.0585	  0.090740	  0.148420	  0.608908	  0.362684	  0.471637	  0.152353	  0.047223	  0.068654	  0.041040	  0.037356	  0.336091	  0.050839	  0.173703	  0.143183	  0.918771	  0.077129	
2.059	  0.090415	  0.147924	  0.606208	  0.362682	  0.468871	  0.150546	  0.047156	  0.068801	  0.041086	  0.037307	  0.334466	  0.051184	  0.175733	  0.144822	  0.930035	  0.077846	
2.0595	  0.090084	  0.147415	  0.603470	  0.362675	  0.466128	  0.148764	  0.047088	  0.068945	  0.041144	  0.037270	  0.332826	  0.051532	  0.177774	  0.146482	  0.941305	  0.078569	
2.06	  0.089747	  0.146891	  0.600697	  0.362663	  0.463410	  0.147009	  0.047020	  0.069085	  0.041212	  0.037244	  0.331170	  0.051883	  0.179827	  0.148163	  0.952573	  0.079298	
2.0605	  0.089404	  0.146354	  0.597889	  0.362643	  0.460715	  0.145280	  0.046951	  0.069220	  0.041290	  0.037230	  0.329499	  0.052237	  0.181892	  0.149865	  0.963831	  0.080033	
2.061	  0.089056	  0.145804	  0.595048	  0.362616	  0.458043	  0.143577	  0.046881	  0.069352	  0.041380	  0.037227	  0.327812	  0.052593	  0.183967	  0.151586	  0.975073	  0.080773	
2.0615	  0.088702	  0.145241	  0.592175	  0.362580	  0.455394	  0.141900	  0.046810	  0.069480	  0.041480	  0.037236	  0.326109	  0.052952	  0.186052	  0.153326	  0.986292	  0.081518	
2.062	  0.088344	  0.144665	  0.589271	  0.362534	  0.452768	  0.140250	  0.046738	  0.069604	  0.041591	  0.037255	  0.324391	  0.053313	  0.188147	  0.155084	  0.997479	  0.082267	
2.0625	  0.087982	  0.144078	  0.586337	  0.362477	  0.450164	  0.138625	  0.046665	  0.069724	  0.041712	  0.037285	  0.322656	  0.053676	  0.190251	  0.156860	  1.008628	  0.083020	
2.063	  0.087615	  0.143478	  0.583373	  0.362406	  0.447582	  0.137026	  0.046591	  0.069841	  0.041845	  0.037326	  0.320906	  0.054042	  0.192364	  0.158652	  1.019729	  0.083776	
